<svg viewBox="0 0 173 173" fill="none" xmlns="http://www.w3.org/2000/svg">
<mask id="mask0_20_450" style="mask-type:luminance" maskUnits="userSpaceOnUse" x="0" y="0">
<path d="M164.814 0.972656H0.29834V172.491H164.814V0.972656Z" fill="white"/>
</mask>
<g mask="url(#mask0_20_450)">
<path d="M73.3213 172.183C95.3633 168.39 113.492 157.814 127.44 140.486C140.499 124.266 146.628 105.45 146.264 84.6608C146.021 71.1568 142.569 58.3658 136.246 46.3739C129.874 34.2855 120.987 24.3318 109.999 16.3995C99.0503 8.51573 86.7443 3.52674 73.3703 1.24654C86.5333 0.195439 99.2123 2.16834 111.406 7.18974C123.801 12.3 134.628 19.7552 143.385 29.8787C156.355 44.8619 163.649 62.3358 164.692 82.1948C165.541 98.3578 162.226 113.738 154.342 127.888C134.733 163.07 99.3663 174.592 73.3213 172.183Z" fill="currentColor"/>
<path d="M65.5674 25.2386C48.6114 28.6428 34.938 37.3028 25.0004 51.3969C17.3996 62.1669 13.3406 74.3689 14.0441 87.6129C15.8068 120.814 34.2103 140.156 65.2194 148.371C50.2604 151.492 24.2322 139.784 13.4456 124.655C-1.27065 104.012 -4.11685 81.8079 7.36505 59.1109C19.219 35.6856 39.4015 24.9314 65.5593 25.2386H65.5674Z" fill="currentColor"/>
<path d="M73.0371 140.602C100.845 133.041 116.628 115.527 117.768 85.949C115.852 57.171 100.222 40.0615 73.0701 32.946C75.9561 32.0727 88.5221 33.3179 97.5461 37.4741C105.543 41.1531 112.286 46.3363 117.663 53.1119C131.385 70.408 133.002 93.687 122.927 112.317C111.089 134.206 88.6031 141.904 73.0371 140.602Z" fill="currentColor"/>
<path d="M65.1782 126.005C57.1892 128.503 39.2545 119.69 32.6644 109.89C22.2983 94.478 23.301 76.94 32.8909 63.485C40.3541 53.014 58.1352 44.8063 66.0192 47.596C48.2622 52.124 36.4729 63.097 34.3948 81.508C31.7831 104.65 43.6213 119.059 65.1782 126.005Z" fill="currentColor"/>
<path d="M72.8284 113.778C85.5884 109.218 93.5934 100.679 93.5614 86.7628C93.5364 72.8878 85.7014 64.2518 72.5864 59.9588C78.0204 59.2228 87.4234 62.1338 93.5934 69.9198C99.8514 77.8278 101.436 88.5098 97.0054 97.9698C92.2754 108.07 83.9794 113.172 72.8284 113.778Z" fill="currentColor"/>
</g>
</svg>
